<svg width="630" height="630" viewBox="0 0 630 630" fill="none" xmlns="http://www.w3.org/2000/svg">
<circle cx="315" cy="315" r="315" fill="#F3D5D5"/>
<path d="M54.1975 385.791L54.9725 385.741C55.6225 385.691 56.235 385.329 56.5225 384.704C56.9975 383.741 56.5725 382.566 55.5725 382.141C55.1618 381.973 54.7049 381.954 54.2819 382.089C53.859 382.224 53.4972 382.504 53.26 382.879C53.0975 383.154 52.9975 383.466 52.985 383.766L52.935 384.529C52.9239 384.698 52.949 384.867 53.0086 385.025C53.0681 385.183 53.1607 385.327 53.2802 385.446C53.3998 385.566 53.5434 385.658 53.7016 385.718C53.8598 385.777 54.0288 385.803 54.1975 385.791ZM46.135 392.829L46.185 393.604C46.235 394.254 46.5975 394.866 47.2225 395.154C48.185 395.629 49.36 395.204 49.785 394.204C49.9536 393.793 49.9721 393.336 49.8372 392.913C49.7023 392.491 49.4227 392.129 49.0475 391.891C48.7725 391.729 48.46 391.629 48.16 391.616L47.3975 391.566C47.2288 391.555 47.0598 391.581 46.9016 391.64C46.7434 391.7 46.5998 391.792 46.4802 391.912C46.3607 392.031 46.2681 392.175 46.2086 392.333C46.149 392.491 46.1239 392.66 46.135 392.829ZM66.4975 405.029L66.56 405.991C66.6225 406.879 65.885 407.616 64.9975 407.554L64.0475 407.491C63.6725 407.466 63.2975 407.354 62.9475 407.141C62.4803 406.847 62.1325 406.397 61.9654 405.871C61.7984 405.345 61.823 404.776 62.035 404.266C62.1572 403.973 62.3386 403.708 62.5677 403.489C62.7968 403.269 63.0688 403.098 63.3667 402.988C63.6646 402.878 63.982 402.83 64.2991 402.848C64.6163 402.866 64.9263 402.949 65.21 403.091C65.985 403.479 66.4475 404.229 66.4975 405.029ZM54.2975 393.754L54.335 394.329C54.3698 394.97 54.576 395.59 54.9322 396.125C55.2884 396.659 55.7815 397.088 56.36 397.366C58.2475 398.304 60.56 397.466 61.3725 395.479C61.7015 394.667 61.7286 393.764 61.4488 392.934C61.169 392.104 60.6008 391.401 59.8475 390.954C59.3225 390.641 58.76 390.479 58.1975 390.454L57.635 390.416C57.1893 390.388 56.7426 390.455 56.3247 390.612C55.9067 390.77 55.5272 391.015 55.2114 391.33C54.8956 391.646 54.6507 392.026 54.4931 392.444C54.3355 392.862 54.2688 393.308 54.2975 393.754ZM70.235 387.116L70.2725 386.591C70.3725 384.879 68.96 383.454 67.2475 383.566L66.735 383.604C66.2225 383.629 65.71 383.779 65.235 384.054C63.8225 384.879 63.235 386.654 63.8475 388.166C64.0206 388.589 64.2789 388.97 64.6061 389.288C64.9334 389.606 65.3226 389.853 65.7495 390.014C66.1765 390.174 66.6319 390.245 67.0875 390.222C67.5431 390.199 67.989 390.082 68.3975 389.879C69.4975 389.329 70.16 388.254 70.235 387.116ZM49.485 404.316L49.51 403.866C49.5725 402.879 50.135 401.966 51.085 401.516C51.4345 401.341 51.8166 401.24 52.2071 401.219C52.5977 401.198 52.9884 401.258 53.3546 401.395C53.7208 401.533 54.0547 401.744 54.3353 402.017C54.6158 402.289 54.837 402.617 54.985 402.979C55.51 404.266 55.01 405.779 53.7975 406.491C53.385 406.729 52.9475 406.854 52.51 406.879L52.0725 406.904C50.61 407.004 49.385 405.779 49.485 404.316ZM72.4475 397.266L72.4975 396.491C72.5085 396.323 72.4834 396.154 72.4239 395.996C72.3643 395.837 72.2717 395.694 72.1522 395.574C72.0327 395.455 71.889 395.362 71.7309 395.303C71.5727 395.243 71.4036 395.218 71.235 395.229L70.4725 395.279C70.1725 395.291 69.86 395.391 69.585 395.554C68.81 396.041 68.4975 397.029 68.8475 397.866C69.2725 398.866 70.4475 399.291 71.41 398.816C72.035 398.529 72.41 397.916 72.4475 397.266Z" fill="#D38B9C"/>
<path d="M61 375.25C66.06 375.25 70.7625 376.7 74.2138 379.839C77.6875 382.996 79.75 387.731 79.75 394C79.75 400.104 77.68 404.83 74.2213 408.024C70.7788 411.2 66.0788 412.75 61 412.75C55.92 412.75 51.22 411.191 47.7775 408.009C44.32 404.811 42.25 400.086 42.25 394C42.25 387.813 44.3163 383.082 47.7825 379.907C51.23 376.75 55.9313 375.25 61 375.25ZM77.25 394C77.25 388.306 75.395 384.291 72.5325 381.689C69.65 379.068 65.6025 377.75 61 377.75C56.4063 377.75 52.3575 379.106 49.4713 381.751C46.6025 384.38 44.75 388.4 44.75 394C44.75 399.49 46.5988 403.513 49.475 406.173C52.3675 408.848 56.4175 410.25 61 410.25C65.5825 410.25 69.6337 408.855 72.525 406.186C75.4 403.533 77.25 399.509 77.25 394Z" fill="#D38B9C"/>
<path d="M58.5 377.5C63.4925 377.5 68.1323 378.95 71.5376 382.089C74.965 385.246 77 389.981 77 396.25C77 402.354 74.9576 407.08 71.545 410.274C68.1484 413.45 63.511 415 58.5 415C53.4877 415 48.8504 413.441 45.4538 410.259C42.0424 407.061 40 402.336 40 396.25C40 390.063 42.0387 385.332 45.4587 382.157C48.8603 379 53.4988 377.5 58.5 377.5ZM74.5333 396.25C74.5333 390.556 72.7031 386.541 69.8787 383.939C67.0347 381.318 63.0411 380 58.5 380C53.9675 380 49.9727 381.356 47.125 384.001C44.2945 386.63 42.4667 390.65 42.4667 396.25C42.4667 401.74 44.2908 405.762 47.1287 408.422C49.9826 411.097 53.9786 412.5 58.5 412.5C63.0214 412.5 67.0186 411.105 69.8713 408.436C72.708 405.782 74.5333 401.759 74.5333 396.25Z" fill="#D38B9C"/>
<path d="M157.932 230.968L159.047 230.896C159.982 230.824 160.864 230.303 161.277 229.403C161.961 228.018 161.349 226.327 159.91 225.716C159.319 225.473 158.662 225.447 158.053 225.641C157.445 225.835 156.924 226.237 156.583 226.777C156.349 227.173 156.205 227.623 156.187 228.054L156.115 229.151C156.099 229.394 156.135 229.637 156.221 229.865C156.307 230.093 156.44 230.299 156.612 230.471C156.784 230.643 156.991 230.777 157.218 230.862C157.446 230.948 157.689 230.984 157.932 230.968ZM146.33 241.095L146.402 242.211C146.474 243.146 146.995 244.027 147.895 244.441C149.28 245.125 150.97 244.513 151.582 243.074C151.825 242.483 151.851 241.826 151.657 241.217C151.463 240.608 151.061 240.088 150.521 239.746C150.125 239.512 149.675 239.369 149.244 239.351L148.146 239.279C147.904 239.263 147.66 239.299 147.433 239.385C147.205 239.47 146.998 239.604 146.826 239.775C146.654 239.947 146.521 240.154 146.436 240.382C146.35 240.609 146.314 240.853 146.33 241.095ZM175.632 258.651L175.722 260.037C175.812 261.314 174.75 262.375 173.473 262.285L172.106 262.195C171.566 262.159 171.027 261.997 170.523 261.691C169.851 261.268 169.35 260.62 169.11 259.863C168.87 259.106 168.905 258.288 169.21 257.554C169.386 257.132 169.647 256.751 169.977 256.435C170.306 256.118 170.698 255.873 171.126 255.714C171.555 255.556 172.012 255.487 172.468 255.513C172.925 255.538 173.371 255.658 173.779 255.863C174.894 256.421 175.56 257.5 175.632 258.651ZM158.076 242.426L158.13 243.254C158.18 244.177 158.476 245.069 158.989 245.838C159.502 246.607 160.211 247.224 161.044 247.625C163.76 248.974 167.088 247.769 168.257 244.909C168.73 243.74 168.769 242.441 168.367 241.246C167.964 240.052 167.146 239.041 166.062 238.397C165.307 237.948 164.497 237.714 163.688 237.678L162.878 237.624C162.237 237.583 161.594 237.679 160.993 237.905C160.391 238.132 159.845 238.484 159.391 238.939C158.936 239.393 158.584 239.94 158.357 240.541C158.13 241.142 158.034 241.785 158.076 242.426ZM181.01 232.875L181.064 232.119C181.208 229.655 179.175 227.605 176.711 227.766L175.974 227.82C175.236 227.856 174.499 228.072 173.815 228.468C171.782 229.655 170.937 232.209 171.818 234.386C172.067 234.993 172.439 235.543 172.91 236C173.381 236.457 173.941 236.813 174.555 237.044C175.17 237.275 175.825 237.377 176.481 237.344C177.136 237.311 177.778 237.143 178.366 236.85C179.949 236.059 180.902 234.512 181.01 232.875ZM151.15 257.626L151.186 256.979C151.276 255.558 152.086 254.244 153.453 253.597C153.956 253.344 154.506 253.198 155.068 253.169C155.63 253.139 156.192 253.225 156.719 253.423C157.246 253.62 157.726 253.925 158.13 254.317C158.534 254.709 158.852 255.18 159.065 255.701C159.82 257.554 159.101 259.731 157.356 260.756C156.763 261.098 156.133 261.278 155.503 261.314L154.874 261.35C152.769 261.494 151.006 259.731 151.15 257.626ZM184.194 247.481L184.266 246.366C184.282 246.123 184.246 245.88 184.16 245.652C184.074 245.425 183.941 245.218 183.769 245.046C183.597 244.874 183.39 244.741 183.163 244.655C182.935 244.569 182.692 244.533 182.449 244.549L181.352 244.621C180.92 244.639 180.47 244.783 180.075 245.017C178.959 245.718 178.51 247.139 179.013 248.344C179.625 249.784 181.316 250.395 182.701 249.712C183.6 249.298 184.14 248.416 184.194 247.481Z" fill="#D38B9C"/>
<path d="M167.721 215.799C175.003 215.799 181.77 217.885 186.736 222.402C191.735 226.946 194.703 233.76 194.703 242.781C194.703 251.564 191.724 258.365 186.747 262.961C181.793 267.532 175.03 269.762 167.721 269.762C160.411 269.762 153.648 267.519 148.694 262.939C143.718 258.338 140.74 251.539 140.74 242.781C140.74 233.877 143.713 227.07 148.701 222.501C153.662 217.957 160.427 215.799 167.721 215.799ZM191.106 242.781C191.106 234.587 188.436 228.809 184.317 225.064C180.169 221.292 174.345 219.396 167.721 219.396C161.111 219.396 155.285 221.348 151.131 225.154C147.003 228.937 144.337 234.722 144.337 242.781C144.337 250.681 146.998 256.469 151.137 260.297C155.299 264.146 161.127 266.165 167.721 266.165C174.316 266.165 180.146 264.157 184.306 260.317C188.443 256.498 191.106 250.708 191.106 242.781Z" fill="#D38B9C"/>
<path d="M164.12 219.037C171.305 219.037 177.981 221.123 182.882 225.64C187.814 230.184 190.742 236.997 190.742 246.018C190.742 254.802 187.803 261.603 182.892 266.199C178.004 270.77 171.331 273 164.12 273C156.907 273 150.234 270.757 145.346 266.177C140.437 261.576 137.498 254.777 137.498 246.018C137.498 237.114 140.432 230.308 145.354 225.739C150.248 221.195 156.923 219.037 164.12 219.037ZM187.193 246.018C187.193 237.825 184.559 232.047 180.495 228.302C176.402 224.53 170.655 222.634 164.12 222.634C157.598 222.634 151.849 224.586 147.751 228.392C143.678 232.175 141.048 237.96 141.048 246.018C141.048 253.919 143.673 259.707 147.757 263.535C151.863 267.384 157.614 269.402 164.12 269.402C170.627 269.402 176.379 267.395 180.484 263.555C184.566 259.736 187.193 253.946 187.193 246.018Z" fill="#D38B9C"/>
<path d="M38.9317 300.968L40.047 300.896C40.9823 300.824 41.8637 300.303 42.2775 299.403C42.961 298.018 42.3494 296.327 40.9104 295.716C40.3195 295.473 39.6619 295.447 39.0533 295.641C38.4447 295.835 37.924 296.237 37.5827 296.777C37.3488 297.173 37.2049 297.623 37.1869 298.054L37.115 299.151C37.0991 299.394 37.1352 299.637 37.2209 299.865C37.3066 300.093 37.4399 300.299 37.6118 300.471C37.7838 300.643 37.9905 300.777 38.2181 300.862C38.4458 300.948 38.689 300.984 38.9317 300.968ZM27.3296 311.095L27.4016 312.211C27.4735 313.146 27.9952 314.027 28.8945 314.441C30.2796 315.125 31.9705 314.513 32.582 313.074C32.8247 312.483 32.8513 311.826 32.6572 311.217C32.4631 310.608 32.0607 310.088 31.5208 309.746C31.125 309.512 30.6753 309.369 30.2436 309.351L29.1464 309.279C28.9037 309.263 28.6604 309.299 28.4328 309.385C28.2052 309.47 27.9984 309.604 27.8265 309.775C27.6545 309.947 27.5212 310.154 27.4355 310.382C27.3498 310.609 27.3137 310.853 27.3296 311.095ZM56.6317 328.651L56.7217 330.037C56.8116 331.314 55.7503 332.375 54.4732 332.285L53.1061 332.195C52.5665 332.159 52.0269 331.997 51.5232 331.691C50.851 331.268 50.3504 330.62 50.11 329.863C49.8697 329.106 49.9051 328.288 50.2101 327.554C50.386 327.132 50.647 326.751 50.9767 326.435C51.3064 326.118 51.6978 325.873 52.1265 325.714C52.5551 325.556 53.0119 325.487 53.4683 325.513C53.9246 325.538 54.3708 325.658 54.779 325.863C55.8942 326.421 56.5598 327.5 56.6317 328.651ZM39.0756 312.426L39.1296 313.254C39.1797 314.177 39.4765 315.069 39.9891 315.838C40.5016 316.607 41.2112 317.224 42.0436 317.625C44.7598 318.974 48.0875 317.769 49.2567 314.909C49.7302 313.74 49.7692 312.441 49.3665 311.246C48.9639 310.052 48.1464 309.041 47.0622 308.397C46.3067 307.948 45.4973 307.714 44.6878 307.678L43.8784 307.624C43.237 307.583 42.5942 307.679 41.9928 307.905C41.3914 308.132 40.8453 308.484 40.3908 308.939C39.9364 309.393 39.584 309.94 39.3572 310.541C39.1304 311.142 39.0344 311.785 39.0756 312.426ZM62.0101 302.875L62.0641 302.119C62.208 299.655 60.1753 297.605 57.711 297.766L56.9735 297.82C56.236 297.856 55.4985 298.072 54.815 298.468C52.7823 299.655 51.9369 302.209 52.8183 304.386C53.0675 304.993 53.4391 305.543 53.9101 306C54.381 306.457 54.9411 306.813 55.5555 307.044C56.1698 307.275 56.8253 307.377 57.4808 307.344C58.1364 307.311 58.7781 307.143 59.3659 306.85C60.9488 306.059 61.9022 304.512 62.0101 302.875ZM32.1503 327.626L32.1863 326.979C32.2762 325.558 33.0857 324.244 34.4528 323.597C34.9558 323.344 35.5055 323.198 36.0676 323.169C36.6296 323.139 37.1918 323.225 37.7188 323.423C38.2458 323.62 38.7263 323.925 39.13 324.317C39.5338 324.709 39.8521 325.18 40.065 325.701C40.8205 327.554 40.1009 329.731 38.3561 330.756C37.7625 331.098 37.133 331.278 36.5034 331.314L35.8738 331.35C33.7692 331.494 32.0064 329.731 32.1503 327.626ZM65.1939 317.481L65.2659 316.366C65.2818 316.123 65.2457 315.88 65.16 315.652C65.0743 315.425 64.941 315.218 64.769 315.046C64.597 314.874 64.3903 314.741 64.1627 314.655C63.9351 314.569 63.6918 314.533 63.4491 314.549L62.3519 314.621C61.9202 314.639 61.4705 314.783 61.0747 315.017C59.9595 315.718 59.5098 317.139 60.0134 318.344C60.625 319.784 62.3159 320.395 63.7009 319.712C64.6003 319.298 65.14 318.416 65.1939 317.481Z" fill="#D38B9C"/>
<path d="M48.7214 285.799C56.0029 285.799 62.7699 287.885 67.7363 292.402C72.7351 296.946 75.7031 303.76 75.7031 312.781C75.7031 321.564 72.7243 328.365 67.7471 332.961C62.7933 337.532 56.0299 339.762 48.7214 339.762C41.4112 339.762 34.6478 337.519 29.6939 332.939C24.7185 328.338 21.7397 321.539 21.7397 312.781C21.7397 303.877 24.7131 297.07 29.7011 292.501C34.6622 287.957 41.4274 285.799 48.7214 285.799ZM72.1056 312.781C72.1056 304.587 69.4362 298.809 65.317 295.064C61.169 291.292 55.3445 289.396 48.7214 289.396C42.1109 289.396 36.2847 291.348 32.1313 295.154C28.0031 298.937 25.3373 304.722 25.3373 312.781C25.3373 320.681 27.9977 326.469 32.1367 330.297C36.299 334.146 42.1271 336.165 48.7214 336.165C55.3157 336.165 61.1456 334.157 65.3062 330.317C69.4434 326.498 72.1056 320.708 72.1056 312.781Z" fill="#D38B9C"/>
<path d="M45.1202 289.037C52.3046 289.037 58.9814 291.123 63.8816 295.64C68.8138 300.184 71.7422 306.997 71.7422 316.018C71.7422 324.802 68.8031 331.603 63.8923 336.199C59.0045 340.77 52.3312 343 45.1202 343C37.9075 343 31.2342 340.757 26.3464 336.177C21.4373 331.576 18.4983 324.777 18.4983 316.018C18.4983 307.114 21.432 300.308 26.3535 295.739C31.2484 291.195 37.9234 289.037 45.1202 289.037ZM68.1926 316.018C68.1926 307.825 65.5588 302.047 61.4945 298.302C57.4018 294.53 51.655 292.634 45.1202 292.634C38.5979 292.634 32.8493 294.586 28.7513 298.392C24.6781 302.175 22.0479 307.96 22.0479 316.018C22.0479 323.919 24.6728 329.707 28.7566 333.535C32.8635 337.384 38.6138 339.402 45.1202 339.402C51.6266 339.402 57.3788 337.395 61.4839 333.555C65.5659 329.736 68.1926 323.946 68.1926 316.018Z" fill="#D38B9C"/>
<path d="M32.1975 225.791L32.9725 225.741C33.6225 225.691 34.235 225.329 34.5225 224.704C34.9975 223.741 34.5725 222.566 33.5725 222.141C33.1618 221.973 32.7049 221.954 32.2819 222.089C31.859 222.224 31.4972 222.504 31.26 222.879C31.0975 223.154 30.9975 223.466 30.985 223.766L30.935 224.529C30.9239 224.698 30.949 224.867 31.0086 225.025C31.0681 225.183 31.1607 225.327 31.2802 225.446C31.3998 225.566 31.5434 225.658 31.7016 225.718C31.8598 225.777 32.0288 225.803 32.1975 225.791ZM24.135 232.829L24.185 233.604C24.235 234.254 24.5975 234.866 25.2225 235.154C26.185 235.629 27.36 235.204 27.785 234.204C27.9536 233.793 27.9721 233.336 27.8372 232.913C27.7023 232.491 27.4227 232.129 27.0475 231.891C26.7725 231.729 26.46 231.629 26.16 231.616L25.3975 231.566C25.2288 231.555 25.0598 231.581 24.9016 231.64C24.7434 231.7 24.5998 231.792 24.4802 231.912C24.3607 232.031 24.2681 232.175 24.2086 232.333C24.149 232.491 24.1239 232.66 24.135 232.829ZM44.4975 245.029L44.56 245.991C44.6225 246.879 43.885 247.616 42.9975 247.554L42.0475 247.491C41.6725 247.466 41.2975 247.354 40.9475 247.141C40.4803 246.847 40.1325 246.397 39.9654 245.871C39.7984 245.345 39.823 244.776 40.035 244.266C40.1572 243.973 40.3386 243.708 40.5677 243.489C40.7968 243.269 41.0688 243.098 41.3667 242.988C41.6646 242.878 41.982 242.83 42.2991 242.848C42.6163 242.866 42.9263 242.949 43.21 243.091C43.985 243.479 44.4475 244.229 44.4975 245.029ZM32.2975 233.754L32.335 234.329C32.3698 234.97 32.576 235.59 32.9322 236.125C33.2884 236.659 33.7815 237.088 34.36 237.366C36.2475 238.304 38.56 237.466 39.3725 235.479C39.7015 234.667 39.7286 233.764 39.4488 232.934C39.169 232.104 38.6008 231.401 37.8475 230.954C37.3225 230.641 36.76 230.479 36.1975 230.454L35.635 230.416C35.1893 230.388 34.7426 230.455 34.3247 230.612C33.9067 230.77 33.5272 231.015 33.2114 231.33C32.8956 231.646 32.6507 232.026 32.4931 232.444C32.3355 232.862 32.2688 233.308 32.2975 233.754ZM48.235 227.116L48.2725 226.591C48.3725 224.879 46.96 223.454 45.2475 223.566L44.735 223.604C44.2225 223.629 43.71 223.779 43.235 224.054C41.8225 224.879 41.235 226.654 41.8475 228.166C42.0206 228.589 42.2789 228.97 42.6061 229.288C42.9334 229.606 43.3226 229.853 43.7495 230.014C44.1765 230.174 44.6319 230.245 45.0875 230.222C45.5431 230.199 45.989 230.082 46.3975 229.879C47.4975 229.329 48.16 228.254 48.235 227.116ZM27.485 244.316L27.51 243.866C27.5725 242.879 28.135 241.966 29.085 241.516C29.4345 241.341 29.8166 241.24 30.2071 241.219C30.5977 241.198 30.9884 241.258 31.3546 241.395C31.7208 241.533 32.0547 241.744 32.3353 242.017C32.6158 242.289 32.837 242.617 32.985 242.979C33.51 244.266 33.01 245.779 31.7975 246.491C31.385 246.729 30.9475 246.854 30.51 246.879L30.0725 246.904C28.61 247.004 27.385 245.779 27.485 244.316ZM50.4475 237.266L50.4975 236.491C50.5085 236.323 50.4834 236.154 50.4239 235.996C50.3643 235.837 50.2717 235.694 50.1522 235.574C50.0327 235.455 49.889 235.362 49.7309 235.303C49.5727 235.243 49.4036 235.218 49.235 235.229L48.4725 235.279C48.1725 235.291 47.86 235.391 47.585 235.554C46.81 236.041 46.4975 237.029 46.8475 237.866C47.2725 238.866 48.4475 239.291 49.41 238.816C50.035 238.529 50.41 237.916 50.4475 237.266Z" fill="#D38B9C"/>
<path d="M39 215.25C44.06 215.25 48.7625 216.7 52.2138 219.839C55.6875 222.996 57.75 227.731 57.75 234C57.75 240.104 55.68 244.83 52.2213 248.024C48.7788 251.2 44.0788 252.75 39 252.75C33.92 252.75 29.22 251.191 25.7775 248.009C22.32 244.811 20.25 240.086 20.25 234C20.25 227.813 22.3163 223.082 25.7825 219.907C29.23 216.75 33.9313 215.25 39 215.25ZM55.25 234C55.25 228.306 53.395 224.291 50.5325 221.689C47.65 219.068 43.6025 217.75 39 217.75C34.4063 217.75 30.3575 219.106 27.4713 221.751C24.6025 224.38 22.75 228.4 22.75 234C22.75 239.49 24.5988 243.513 27.475 246.173C30.3675 248.848 34.4175 250.25 39 250.25C43.5825 250.25 47.6337 248.855 50.525 246.186C53.4 243.533 55.25 239.509 55.25 234Z" fill="#D38B9C"/>
<path d="M36.5 217.5C41.4925 217.5 46.1323 218.95 49.5376 222.089C52.965 225.246 55 229.981 55 236.25C55 242.354 52.9576 247.08 49.545 250.274C46.1484 253.45 41.511 255 36.5 255C31.4877 255 26.8504 253.441 23.4538 250.259C20.0424 247.061 18 242.336 18 236.25C18 230.063 20.0387 225.332 23.4587 222.157C26.8603 219 31.4988 217.5 36.5 217.5ZM52.5333 236.25C52.5333 230.556 50.7031 226.541 47.8787 223.939C45.0347 221.318 41.0411 220 36.5 220C31.9675 220 27.9727 221.356 25.125 224.001C22.2945 226.63 20.4667 230.65 20.4667 236.25C20.4667 241.74 22.2908 245.762 25.1287 248.422C27.9826 251.097 31.9786 252.5 36.5 252.5C41.0214 252.5 45.0186 251.105 47.8713 248.436C50.708 245.782 52.5333 241.759 52.5333 236.25Z" fill="#D38B9C"/>
<path d="M567.303 385.791L566.528 385.741C565.878 385.691 565.265 385.329 564.978 384.704C564.503 383.741 564.928 382.566 565.928 382.141C566.338 381.973 566.795 381.954 567.218 382.089C567.641 382.224 568.003 382.504 568.24 382.879C568.403 383.154 568.503 383.466 568.515 383.766L568.565 384.529C568.576 384.698 568.551 384.867 568.491 385.025C568.432 385.183 568.339 385.327 568.22 385.446C568.1 385.566 567.957 385.658 567.798 385.718C567.64 385.777 567.471 385.803 567.303 385.791ZM575.365 392.829L575.315 393.604C575.265 394.254 574.903 394.866 574.278 395.154C573.315 395.629 572.14 395.204 571.715 394.204C571.546 393.793 571.528 393.336 571.663 392.913C571.798 392.491 572.077 392.129 572.453 391.891C572.728 391.729 573.04 391.629 573.34 391.616L574.103 391.566C574.271 391.555 574.44 391.581 574.598 391.64C574.757 391.7 574.9 391.792 575.02 391.912C575.139 392.031 575.232 392.175 575.291 392.333C575.351 392.491 575.376 392.66 575.365 392.829ZM555.003 405.029L554.94 405.991C554.878 406.879 555.615 407.616 556.503 407.554L557.453 407.491C557.828 407.466 558.203 407.354 558.553 407.141C559.02 406.847 559.368 406.397 559.535 405.871C559.702 405.345 559.677 404.776 559.465 404.266C559.343 403.973 559.161 403.708 558.932 403.489C558.703 403.269 558.431 403.098 558.133 402.988C557.835 402.878 557.518 402.83 557.201 402.848C556.884 402.866 556.574 402.949 556.29 403.091C555.515 403.479 555.053 404.229 555.003 405.029ZM567.203 393.754L567.165 394.329C567.13 394.97 566.924 395.59 566.568 396.125C566.212 396.659 565.719 397.088 565.14 397.366C563.253 398.304 560.94 397.466 560.128 395.479C559.799 394.667 559.771 393.764 560.051 392.934C560.331 392.104 560.899 391.401 561.653 390.954C562.178 390.641 562.74 390.479 563.303 390.454L563.865 390.416C564.311 390.388 564.757 390.455 565.175 390.612C565.593 390.77 565.973 391.015 566.289 391.33C566.604 391.646 566.849 392.026 567.007 392.444C567.164 392.862 567.231 393.308 567.203 393.754ZM551.265 387.116L551.228 386.591C551.128 384.879 552.54 383.454 554.253 383.566L554.765 383.604C555.278 383.629 555.79 383.779 556.265 384.054C557.678 384.879 558.265 386.654 557.653 388.166C557.479 388.589 557.221 388.97 556.894 389.288C556.567 389.606 556.177 389.853 555.75 390.014C555.324 390.174 554.868 390.245 554.412 390.222C553.957 390.199 553.511 390.082 553.103 389.879C552.003 389.329 551.34 388.254 551.265 387.116ZM572.015 404.316L571.99 403.866C571.928 402.879 571.365 401.966 570.415 401.516C570.065 401.341 569.683 401.24 569.293 401.219C568.902 401.198 568.512 401.258 568.145 401.395C567.779 401.533 567.445 401.744 567.165 402.017C566.884 402.289 566.663 402.617 566.515 402.979C565.99 404.266 566.49 405.779 567.703 406.491C568.115 406.729 568.553 406.854 568.99 406.879L569.428 406.904C570.89 407.004 572.115 405.779 572.015 404.316ZM549.053 397.266L549.003 396.491C548.991 396.323 549.017 396.154 549.076 395.996C549.136 395.837 549.228 395.694 549.348 395.574C549.467 395.455 549.611 395.362 549.769 395.303C549.927 395.243 550.096 395.218 550.265 395.229L551.028 395.279C551.328 395.291 551.64 395.391 551.915 395.554C552.69 396.041 553.003 397.029 552.653 397.866C552.228 398.866 551.053 399.291 550.09 398.816C549.465 398.529 549.09 397.916 549.053 397.266Z" fill="#D38B9C"/>
<path d="M560.5 375.25C555.44 375.25 550.737 376.7 547.286 379.839C543.812 382.996 541.75 387.731 541.75 394C541.75 400.104 543.82 404.83 547.279 408.024C550.721 411.2 555.421 412.75 560.5 412.75C565.58 412.75 570.28 411.191 573.722 408.009C577.18 404.811 579.25 400.086 579.25 394C579.25 387.813 577.184 383.082 573.717 379.907C570.27 376.75 565.569 375.25 560.5 375.25ZM544.25 394C544.25 388.306 546.105 384.291 548.968 381.689C551.85 379.068 555.898 377.75 560.5 377.75C565.094 377.75 569.142 379.106 572.029 381.751C574.897 384.38 576.75 388.4 576.75 394C576.75 399.49 574.901 403.513 572.025 406.173C569.132 408.848 565.082 410.25 560.5 410.25C555.918 410.25 551.866 408.855 548.975 406.186C546.1 403.533 544.25 399.509 544.25 394Z" fill="#D38B9C"/>
<path d="M563 377.5C558.007 377.5 553.368 378.95 549.962 382.089C546.535 385.246 544.5 389.981 544.5 396.25C544.5 402.354 546.542 407.08 549.955 410.274C553.352 413.45 557.989 415 563 415C568.012 415 572.65 413.441 576.046 410.259C579.458 407.061 581.5 402.336 581.5 396.25C581.5 390.063 579.461 385.332 576.041 382.157C572.64 379 568.001 377.5 563 377.5ZM546.967 396.25C546.967 390.556 548.797 386.541 551.621 383.939C554.465 381.318 558.459 380 563 380C567.532 380 571.527 381.356 574.375 384.001C577.206 386.63 579.033 390.65 579.033 396.25C579.033 401.74 577.209 405.762 574.371 408.422C571.517 411.097 567.521 412.5 563 412.5C558.479 412.5 554.481 411.105 551.629 408.436C548.792 405.782 546.967 401.759 546.967 396.25Z" fill="#D38B9C"/>
<path d="M463.568 230.968L462.453 230.896C461.518 230.824 460.636 230.303 460.223 229.403C459.539 228.018 460.151 226.327 461.59 225.716C462.181 225.473 462.838 225.447 463.447 225.641C464.055 225.835 464.576 226.237 464.917 226.777C465.151 227.173 465.295 227.623 465.313 228.054L465.385 229.151C465.401 229.394 465.365 229.637 465.279 229.865C465.193 230.093 465.06 230.299 464.888 230.471C464.716 230.643 464.509 230.777 464.282 230.862C464.054 230.948 463.811 230.984 463.568 230.968ZM475.17 241.095L475.098 242.211C475.026 243.146 474.505 244.027 473.605 244.441C472.22 245.125 470.53 244.513 469.918 243.074C469.675 242.483 469.649 241.826 469.843 241.217C470.037 240.608 470.439 240.088 470.979 239.746C471.375 239.512 471.825 239.369 472.256 239.351L473.354 239.279C473.596 239.263 473.84 239.299 474.067 239.385C474.295 239.47 474.502 239.604 474.674 239.775C474.846 239.947 474.979 240.154 475.064 240.382C475.15 240.609 475.186 240.853 475.17 241.095ZM445.868 258.651L445.778 260.037C445.688 261.314 446.75 262.375 448.027 262.285L449.394 262.195C449.934 262.159 450.473 261.997 450.977 261.691C451.649 261.268 452.15 260.62 452.39 259.863C452.63 259.106 452.595 258.288 452.29 257.554C452.114 257.132 451.853 256.751 451.523 256.435C451.194 256.118 450.802 255.873 450.374 255.714C449.945 255.556 449.488 255.487 449.032 255.513C448.575 255.538 448.129 255.658 447.721 255.863C446.606 256.421 445.94 257.5 445.868 258.651ZM463.424 242.426L463.37 243.254C463.32 244.177 463.024 245.069 462.511 245.838C461.998 246.607 461.289 247.224 460.456 247.625C457.74 248.974 454.412 247.769 453.243 244.909C452.77 243.74 452.731 242.441 453.133 241.246C453.536 240.052 454.354 239.041 455.438 238.397C456.193 237.948 457.003 237.714 457.812 237.678L458.622 237.624C459.263 237.583 459.906 237.679 460.507 237.905C461.109 238.132 461.655 238.484 462.109 238.939C462.564 239.393 462.916 239.94 463.143 240.541C463.37 241.142 463.466 241.785 463.424 242.426ZM440.49 232.875L440.436 232.119C440.292 229.655 442.325 227.605 444.789 227.766L445.526 227.82C446.264 227.856 447.001 228.072 447.685 228.468C449.718 229.655 450.563 232.209 449.682 234.386C449.433 234.993 449.061 235.543 448.59 236C448.119 236.457 447.559 236.813 446.945 237.044C446.33 237.275 445.675 237.377 445.019 237.344C444.364 237.311 443.722 237.143 443.134 236.85C441.551 236.059 440.598 234.512 440.49 232.875ZM470.35 257.626L470.314 256.979C470.224 255.558 469.414 254.244 468.047 253.597C467.544 253.344 466.994 253.198 466.432 253.169C465.87 253.139 465.308 253.225 464.781 253.423C464.254 253.62 463.774 253.925 463.37 254.317C462.966 254.709 462.648 255.18 462.435 255.701C461.68 257.554 462.399 259.731 464.144 260.756C464.737 261.098 465.367 261.278 465.997 261.314L466.626 261.35C468.731 261.494 470.494 259.731 470.35 257.626ZM437.306 247.481L437.234 246.366C437.218 246.123 437.254 245.88 437.34 245.652C437.426 245.425 437.559 245.218 437.731 245.046C437.903 244.874 438.11 244.741 438.337 244.655C438.565 244.569 438.808 244.533 439.051 244.549L440.148 244.621C440.58 244.639 441.03 244.783 441.425 245.017C442.541 245.718 442.99 247.139 442.487 248.344C441.875 249.784 440.184 250.395 438.799 249.712C437.9 249.298 437.36 248.416 437.306 247.481Z" fill="#D38B9C"/>
<path d="M453.779 215.799C446.497 215.799 439.73 217.885 434.764 222.402C429.765 226.946 426.797 233.76 426.797 242.781C426.797 251.564 429.776 258.365 434.753 262.961C439.707 267.532 446.47 269.762 453.779 269.762C461.089 269.762 467.852 267.519 472.806 262.939C477.782 258.338 480.76 251.539 480.76 242.781C480.76 233.877 477.787 227.07 472.799 222.501C467.838 217.957 461.073 215.799 453.779 215.799ZM430.394 242.781C430.394 234.587 433.064 228.809 437.183 225.064C441.331 221.292 447.155 219.396 453.779 219.396C460.389 219.396 466.215 221.348 470.369 225.154C474.497 228.937 477.163 234.722 477.163 242.781C477.163 250.681 474.502 256.469 470.363 260.297C466.201 264.146 460.373 266.165 453.779 266.165C447.184 266.165 441.354 264.157 437.194 260.317C433.057 256.498 430.394 250.708 430.394 242.781Z" fill="#D38B9C"/>
<path d="M457.38 219.037C450.195 219.037 443.519 221.123 438.618 225.64C433.686 230.184 430.758 236.997 430.758 246.018C430.758 254.802 433.697 261.603 438.608 266.199C443.496 270.77 450.169 273 457.38 273C464.593 273 471.266 270.757 476.154 266.177C481.063 261.576 484.002 254.777 484.002 246.018C484.002 237.114 481.068 230.308 476.146 225.739C471.252 221.195 464.577 219.037 457.38 219.037ZM434.307 246.018C434.307 237.825 436.941 232.047 441.005 228.302C445.098 224.53 450.845 222.634 457.38 222.634C463.902 222.634 469.651 224.586 473.749 228.392C477.822 232.175 480.452 237.96 480.452 246.018C480.452 253.919 477.827 259.707 473.743 263.535C469.637 267.384 463.886 269.402 457.38 269.402C450.873 269.402 445.121 267.395 441.016 263.555C436.934 259.736 434.307 253.946 434.307 246.018Z" fill="#D38B9C"/>
<path d="M582.568 300.968L581.453 300.896C580.518 300.824 579.636 300.303 579.223 299.403C578.539 298.018 579.151 296.327 580.59 295.716C581.181 295.473 581.838 295.447 582.447 295.641C583.055 295.835 583.576 296.237 583.917 296.777C584.151 297.173 584.295 297.623 584.313 298.054L584.385 299.151C584.401 299.394 584.365 299.637 584.279 299.865C584.193 300.093 584.06 300.299 583.888 300.471C583.716 300.643 583.509 300.777 583.282 300.862C583.054 300.948 582.811 300.984 582.568 300.968ZM594.17 311.095L594.098 312.211C594.026 313.146 593.505 314.027 592.605 314.441C591.22 315.125 589.53 314.513 588.918 313.074C588.675 312.483 588.649 311.826 588.843 311.217C589.037 310.608 589.439 310.088 589.979 309.746C590.375 309.512 590.825 309.369 591.256 309.351L592.354 309.279C592.596 309.263 592.84 309.299 593.067 309.385C593.295 309.47 593.502 309.604 593.674 309.775C593.846 309.947 593.979 310.154 594.064 310.382C594.15 310.609 594.186 310.853 594.17 311.095ZM564.868 328.651L564.778 330.037C564.688 331.314 565.75 332.375 567.027 332.285L568.394 332.195C568.934 332.159 569.473 331.997 569.977 331.691C570.649 331.268 571.15 330.62 571.39 329.863C571.63 329.106 571.595 328.288 571.29 327.554C571.114 327.132 570.853 326.751 570.523 326.435C570.194 326.118 569.802 325.873 569.374 325.714C568.945 325.556 568.488 325.487 568.032 325.513C567.575 325.538 567.129 325.658 566.721 325.863C565.606 326.421 564.94 327.5 564.868 328.651ZM582.424 312.426L582.37 313.254C582.32 314.177 582.024 315.069 581.511 315.838C580.998 316.607 580.289 317.224 579.456 317.625C576.74 318.974 573.412 317.769 572.243 314.909C571.77 313.74 571.731 312.441 572.133 311.246C572.536 310.052 573.354 309.041 574.438 308.397C575.193 307.948 576.003 307.714 576.812 307.678L577.622 307.624C578.263 307.583 578.906 307.679 579.507 307.905C580.109 308.132 580.655 308.484 581.109 308.939C581.564 309.393 581.916 309.94 582.143 310.541C582.37 311.142 582.466 311.785 582.424 312.426ZM559.49 302.875L559.436 302.119C559.292 299.655 561.325 297.605 563.789 297.766L564.526 297.82C565.264 297.856 566.001 298.072 566.685 298.468C568.718 299.655 569.563 302.209 568.682 304.386C568.433 304.993 568.061 305.543 567.59 306C567.119 306.457 566.559 306.813 565.945 307.044C565.33 307.275 564.675 307.377 564.019 307.344C563.364 307.311 562.722 307.143 562.134 306.85C560.551 306.059 559.598 304.512 559.49 302.875ZM589.35 327.626L589.314 326.979C589.224 325.558 588.414 324.244 587.047 323.597C586.544 323.344 585.994 323.198 585.432 323.169C584.87 323.139 584.308 323.225 583.781 323.423C583.254 323.62 582.774 323.925 582.37 324.317C581.966 324.709 581.648 325.18 581.435 325.701C580.68 327.554 581.399 329.731 583.144 330.756C583.737 331.098 584.367 331.278 584.997 331.314L585.626 331.35C587.731 331.494 589.494 329.731 589.35 327.626ZM556.306 317.481L556.234 316.366C556.218 316.123 556.254 315.88 556.34 315.652C556.426 315.425 556.559 315.218 556.731 315.046C556.903 314.874 557.11 314.741 557.337 314.655C557.565 314.569 557.808 314.533 558.051 314.549L559.148 314.621C559.58 314.639 560.03 314.783 560.425 315.017C561.541 315.718 561.99 317.139 561.487 318.344C560.875 319.784 559.184 320.395 557.799 319.712C556.9 319.298 556.36 318.416 556.306 317.481Z" fill="#D38B9C"/>
<path d="M572.779 285.799C565.497 285.799 558.73 287.885 553.764 292.402C548.765 296.946 545.797 303.76 545.797 312.781C545.797 321.564 548.776 328.365 553.753 332.961C558.707 337.532 565.47 339.762 572.779 339.762C580.089 339.762 586.852 337.519 591.806 332.939C596.782 328.338 599.76 321.539 599.76 312.781C599.76 303.877 596.787 297.07 591.799 292.501C586.838 287.957 580.073 285.799 572.779 285.799ZM549.394 312.781C549.394 304.587 552.064 298.809 556.183 295.064C560.331 291.292 566.155 289.396 572.779 289.396C579.389 289.396 585.215 291.348 589.369 295.154C593.497 298.937 596.163 304.722 596.163 312.781C596.163 320.681 593.502 326.469 589.363 330.297C585.201 334.146 579.373 336.165 572.779 336.165C566.184 336.165 560.354 334.157 556.194 330.317C552.057 326.498 549.394 320.708 549.394 312.781Z" fill="#D38B9C"/>
<path d="M576.38 289.037C569.195 289.037 562.519 291.123 557.618 295.64C552.686 300.184 549.758 306.997 549.758 316.018C549.758 324.802 552.697 331.603 557.608 336.199C562.496 340.77 569.169 343 576.38 343C583.593 343 590.266 340.757 595.154 336.177C600.063 331.576 603.002 324.777 603.002 316.018C603.002 307.114 600.068 300.308 595.146 295.739C590.252 291.195 583.577 289.037 576.38 289.037ZM553.307 316.018C553.307 307.825 555.941 302.047 560.005 298.302C564.098 294.53 569.845 292.634 576.38 292.634C582.902 292.634 588.651 294.586 592.749 298.392C596.822 302.175 599.452 307.96 599.452 316.018C599.452 323.919 596.827 329.707 592.743 333.535C588.637 337.384 582.886 339.402 576.38 339.402C569.873 339.402 564.121 337.395 560.016 333.555C555.934 329.736 553.307 323.946 553.307 316.018Z" fill="#D38B9C"/>
<path d="M589.303 225.791L588.528 225.741C587.878 225.691 587.265 225.329 586.978 224.704C586.503 223.741 586.928 222.566 587.928 222.141C588.338 221.973 588.795 221.954 589.218 222.089C589.641 222.224 590.003 222.504 590.24 222.879C590.403 223.154 590.503 223.466 590.515 223.766L590.565 224.529C590.576 224.698 590.551 224.867 590.491 225.025C590.432 225.183 590.339 225.327 590.22 225.446C590.1 225.566 589.957 225.658 589.798 225.718C589.64 225.777 589.471 225.803 589.303 225.791ZM597.365 232.829L597.315 233.604C597.265 234.254 596.903 234.866 596.278 235.154C595.315 235.629 594.14 235.204 593.715 234.204C593.546 233.793 593.528 233.336 593.663 232.913C593.798 232.491 594.077 232.129 594.453 231.891C594.728 231.729 595.04 231.629 595.34 231.616L596.103 231.566C596.271 231.555 596.44 231.581 596.598 231.64C596.757 231.7 596.9 231.792 597.02 231.912C597.139 232.031 597.232 232.175 597.291 232.333C597.351 232.491 597.376 232.66 597.365 232.829ZM577.003 245.029L576.94 245.991C576.878 246.879 577.615 247.616 578.503 247.554L579.453 247.491C579.828 247.466 580.203 247.354 580.553 247.141C581.02 246.847 581.368 246.397 581.535 245.871C581.702 245.345 581.677 244.776 581.465 244.266C581.343 243.973 581.161 243.708 580.932 243.489C580.703 243.269 580.431 243.098 580.133 242.988C579.835 242.878 579.518 242.83 579.201 242.848C578.884 242.866 578.574 242.949 578.29 243.091C577.515 243.479 577.053 244.229 577.003 245.029ZM589.203 233.754L589.165 234.329C589.13 234.97 588.924 235.59 588.568 236.125C588.212 236.659 587.719 237.088 587.14 237.366C585.253 238.304 582.94 237.466 582.128 235.479C581.799 234.667 581.771 233.764 582.051 232.934C582.331 232.104 582.899 231.401 583.653 230.954C584.178 230.641 584.74 230.479 585.303 230.454L585.865 230.416C586.311 230.388 586.757 230.455 587.175 230.612C587.593 230.77 587.973 231.015 588.289 231.33C588.604 231.646 588.849 232.026 589.007 232.444C589.164 232.862 589.231 233.308 589.203 233.754ZM573.265 227.116L573.228 226.591C573.128 224.879 574.54 223.454 576.253 223.566L576.765 223.604C577.278 223.629 577.79 223.779 578.265 224.054C579.678 224.879 580.265 226.654 579.653 228.166C579.479 228.589 579.221 228.97 578.894 229.288C578.567 229.606 578.177 229.853 577.75 230.014C577.324 230.174 576.868 230.245 576.412 230.222C575.957 230.199 575.511 230.082 575.103 229.879C574.003 229.329 573.34 228.254 573.265 227.116ZM594.015 244.316L593.99 243.866C593.928 242.879 593.365 241.966 592.415 241.516C592.065 241.341 591.683 241.24 591.293 241.219C590.902 241.198 590.512 241.258 590.145 241.395C589.779 241.533 589.445 241.744 589.165 242.017C588.884 242.289 588.663 242.617 588.515 242.979C587.99 244.266 588.49 245.779 589.703 246.491C590.115 246.729 590.553 246.854 590.99 246.879L591.428 246.904C592.89 247.004 594.115 245.779 594.015 244.316ZM571.053 237.266L571.003 236.491C570.991 236.323 571.017 236.154 571.076 235.996C571.136 235.837 571.228 235.694 571.348 235.574C571.467 235.455 571.611 235.362 571.769 235.303C571.927 235.243 572.096 235.218 572.265 235.229L573.028 235.279C573.328 235.291 573.64 235.391 573.915 235.554C574.69 236.041 575.003 237.029 574.653 237.866C574.228 238.866 573.053 239.291 572.09 238.816C571.465 238.529 571.09 237.916 571.053 237.266Z" fill="#D38B9C"/>
<path d="M582.5 215.25C577.44 215.25 572.737 216.7 569.286 219.839C565.812 222.996 563.75 227.731 563.75 234C563.75 240.104 565.82 244.83 569.279 248.024C572.721 251.2 577.421 252.75 582.5 252.75C587.58 252.75 592.28 251.191 595.722 248.009C599.18 244.811 601.25 240.086 601.25 234C601.25 227.813 599.184 223.082 595.717 219.907C592.27 216.75 587.569 215.25 582.5 215.25ZM566.25 234C566.25 228.306 568.105 224.291 570.968 221.689C573.85 219.068 577.898 217.75 582.5 217.75C587.094 217.75 591.142 219.106 594.029 221.751C596.897 224.38 598.75 228.4 598.75 234C598.75 239.49 596.901 243.513 594.025 246.173C591.132 248.848 587.082 250.25 582.5 250.25C577.918 250.25 573.866 248.855 570.975 246.186C568.1 243.533 566.25 239.509 566.25 234Z" fill="#D38B9C"/>
<path d="M585 217.5C580.007 217.5 575.368 218.95 571.962 222.089C568.535 225.246 566.5 229.981 566.5 236.25C566.5 242.354 568.542 247.08 571.955 250.274C575.352 253.45 579.989 255 585 255C590.012 255 594.65 253.441 598.046 250.259C601.458 247.061 603.5 242.336 603.5 236.25C603.5 230.063 601.461 225.332 598.041 222.157C594.64 219 590.001 217.5 585 217.5ZM568.967 236.25C568.967 230.556 570.797 226.541 573.621 223.939C576.465 221.318 580.459 220 585 220C589.532 220 593.527 221.356 596.375 224.001C599.206 226.63 601.033 230.65 601.033 236.25C601.033 241.74 599.209 245.762 596.371 248.422C593.517 251.097 589.521 252.5 585 252.5C580.479 252.5 576.481 251.105 573.629 248.436C570.792 245.782 568.967 241.759 568.967 236.25Z" fill="#D38B9C"/>
<path d="M126.672 333.484C127.47 333.484 128.083 333.852 128.512 334.588C129.003 335.324 129.248 336.336 129.248 337.624C129.248 340.077 128.666 341.979 127.5 343.328C124.863 346.579 121.98 349.247 118.852 351.332C115.724 353.417 112.136 354.46 108.088 354.46C95.5763 354.46 89.3203 345.659 89.3203 328.056C89.3203 325.357 89.4123 322.628 89.5963 319.868H86.0083C84.1683 319.868 82.911 319.531 82.2363 318.856C81.623 318.181 81.3163 317.108 81.3163 315.636C81.3163 312.201 82.6963 310.484 85.4563 310.484H90.7003C91.743 303.737 93.3376 297.573 95.4843 291.992C97.631 286.411 100.207 281.964 103.212 278.652C106.279 275.34 109.56 273.684 113.056 273.684C115.632 273.684 117.656 274.819 119.128 277.088C120.6 279.357 121.336 282.209 121.336 285.644C121.336 295.151 117.35 303.431 109.376 310.484H119.68C120.662 310.484 121.367 310.699 121.796 311.128C122.226 311.557 122.44 312.355 122.44 313.52C122.44 317.752 118.975 319.868 112.044 319.868H100.82C100.698 322.935 100.636 325.327 100.636 327.044C100.636 333.423 101.372 337.9 102.844 340.476C104.378 343.052 106.77 344.34 110.02 344.34C112.658 344.34 114.988 343.543 117.012 341.948C119.036 340.353 121.428 337.961 124.188 334.772C124.924 333.913 125.752 333.484 126.672 333.484ZM110.572 282.516C109.652 282.516 108.61 283.681 107.444 286.012C106.34 288.281 105.267 291.471 104.224 295.58C103.243 299.628 102.415 304.136 101.74 309.104C105.359 305.976 108.058 302.48 109.836 298.616C111.676 294.691 112.596 291.133 112.596 287.944C112.596 284.325 111.922 282.516 110.572 282.516ZM164.537 333.484C165.335 333.484 165.948 333.852 166.377 334.588C166.868 335.324 167.113 336.336 167.113 337.624C167.113 340.077 166.531 341.979 165.365 343.328C162.544 346.579 159.631 349.247 156.625 351.332C153.681 353.417 150.308 354.46 146.505 354.46C143.377 354.46 141.016 353.571 139.421 351.792C137.827 349.952 137.029 347.315 137.029 343.88C137.029 342.163 137.459 339.096 138.317 334.68C139.115 330.816 139.513 328.148 139.513 326.676C139.513 325.695 139.176 325.204 138.501 325.204C137.704 325.204 136.569 326.247 135.097 328.332C133.625 330.356 132.153 333.055 130.681 336.428C129.209 339.801 128.013 343.359 127.093 347.1C125.928 352.007 123.045 354.46 118.445 354.46C116.605 354.46 115.379 353.816 114.765 352.528C114.213 351.179 113.937 348.787 113.937 345.352C113.937 343.389 113.968 341.825 114.029 340.66L114.121 333.3C114.121 323.855 115.072 314.011 116.973 303.768C118.936 293.525 121.788 284.939 125.529 278.008C129.332 271.016 133.871 267.52 139.145 267.52C141.967 267.52 144.236 268.747 145.953 271.2C147.732 273.592 148.621 276.72 148.621 280.584C148.621 286.779 146.812 293.219 143.193 299.904C139.575 306.528 133.687 314.287 125.529 323.18C125.345 326.369 125.253 329.651 125.253 333.024C127.277 327.811 129.516 323.579 131.969 320.328C134.484 317.016 136.937 314.655 139.329 313.244C141.783 311.833 144.021 311.128 146.045 311.128C150.032 311.128 152.025 313.121 152.025 317.108C152.025 319.5 151.351 323.824 150.001 330.08C148.836 335.416 148.253 338.943 148.253 340.66C148.253 343.113 149.143 344.34 150.921 344.34C152.148 344.34 153.589 343.604 155.245 342.132C156.963 340.599 159.232 338.145 162.053 334.772C162.789 333.913 163.617 333.484 164.537 333.484ZM137.213 276.628C136.109 276.628 134.883 278.223 133.533 281.412C132.184 284.54 130.865 288.803 129.577 294.2C128.351 299.536 127.339 305.363 126.541 311.68C130.344 307.203 133.472 302.327 135.925 297.052C138.44 291.777 139.697 286.993 139.697 282.7C139.697 280.737 139.483 279.235 139.053 278.192C138.624 277.149 138.011 276.628 137.213 276.628ZM184.313 336.244C185.111 336.244 185.724 336.612 186.153 337.348C186.644 338.084 186.889 339.096 186.889 340.384C186.889 342.592 186.368 344.493 185.325 346.088C183.608 348.725 181.339 350.78 178.517 352.252C175.757 353.724 172.445 354.46 168.581 354.46C162.693 354.46 158.124 352.712 154.873 349.216C151.622 345.659 149.997 340.875 149.997 334.864C149.997 330.632 150.886 326.707 152.665 323.088C154.444 319.408 156.897 316.495 160.025 314.348C163.215 312.201 166.803 311.128 170.789 311.128C174.346 311.128 177.199 312.201 179.345 314.348C181.492 316.433 182.565 319.285 182.565 322.904C182.565 327.136 181.032 330.785 177.965 333.852C174.96 336.857 169.808 339.249 162.509 341.028C163.981 343.849 166.465 345.26 169.961 345.26C172.476 345.26 174.531 344.677 176.125 343.512C177.781 342.347 179.683 340.384 181.829 337.624C182.565 336.704 183.393 336.244 184.313 336.244ZM169.225 320.144C166.956 320.144 165.024 321.463 163.429 324.1C161.896 326.737 161.129 329.927 161.129 333.668V333.852C164.748 332.993 167.6 331.705 169.685 329.988C171.771 328.271 172.813 326.277 172.813 324.008C172.813 322.843 172.476 321.923 171.801 321.248C171.188 320.512 170.329 320.144 169.225 320.144ZM214.561 354.46C208.55 354.46 203.858 352.773 200.485 349.4C197.173 345.965 195.517 341.457 195.517 335.876C195.517 330.908 196.498 326.553 198.461 322.812C200.424 319.071 202.969 316.188 206.097 314.164C209.225 312.14 212.506 311.128 215.941 311.128C219.314 311.128 221.921 312.14 223.761 314.164C225.662 316.127 226.613 318.672 226.613 321.8C226.613 324.376 226.03 326.553 224.865 328.332C223.761 330.111 222.289 331 220.449 331C219.284 331 218.333 330.724 217.597 330.172C216.922 329.62 216.585 328.853 216.585 327.872C216.585 327.443 216.646 326.952 216.769 326.4C216.892 325.848 216.984 325.449 217.045 325.204C217.352 324.284 217.505 323.425 217.505 322.628C217.505 321.831 217.29 321.217 216.861 320.788C216.493 320.359 215.941 320.144 215.205 320.144C213.794 320.144 212.476 320.788 211.249 322.076C210.022 323.303 209.041 324.989 208.305 327.136C207.569 329.283 207.201 331.644 207.201 334.22C207.201 341.335 210.298 344.892 216.493 344.892C219.008 344.892 221.706 344.064 224.589 342.408C227.533 340.691 230.416 338.145 233.237 334.772C233.973 333.913 234.801 333.484 235.721 333.484C236.518 333.484 237.132 333.852 237.561 334.588C238.052 335.324 238.297 336.336 238.297 337.624C238.297 339.955 237.714 341.856 236.549 343.328C233.666 346.885 230.201 349.645 226.153 351.608C222.166 353.509 218.302 354.46 214.561 354.46ZM232.998 354.46C229.195 354.46 226.159 353.08 223.89 350.32C221.62 347.56 220.486 343.941 220.486 339.464C220.486 334.557 221.62 329.927 223.89 325.572C226.159 321.156 229.164 317.629 232.906 314.992C236.708 312.293 240.726 310.944 244.958 310.944C246.307 310.944 247.196 311.22 247.626 311.772C248.116 312.263 248.515 313.183 248.822 314.532C250.11 314.287 251.459 314.164 252.87 314.164C255.875 314.164 257.378 315.237 257.378 317.384C257.378 318.672 256.918 321.739 255.998 326.584C254.587 333.637 253.882 338.544 253.882 341.304C253.882 342.224 254.096 342.96 254.526 343.512C255.016 344.064 255.63 344.34 256.366 344.34C257.531 344.34 258.942 343.604 260.598 342.132C262.254 340.599 264.492 338.145 267.314 334.772C268.05 333.913 268.878 333.484 269.798 333.484C270.595 333.484 271.208 333.852 271.638 334.588C272.128 335.324 272.374 336.336 272.374 337.624C272.374 340.077 271.791 341.979 270.626 343.328C268.111 346.456 265.443 349.093 262.622 351.24C259.8 353.387 257.071 354.46 254.434 354.46C252.41 354.46 250.539 353.785 248.822 352.436C247.166 351.025 245.908 349.124 245.05 346.732C241.86 351.884 237.843 354.46 232.998 354.46ZM236.31 345.168C237.659 345.168 238.947 344.371 240.174 342.776C241.4 341.181 242.29 339.065 242.842 336.428L246.246 319.5C243.67 319.561 241.278 320.543 239.07 322.444C236.923 324.284 235.206 326.737 233.918 329.804C232.63 332.871 231.986 336.121 231.986 339.556C231.986 341.457 232.354 342.868 233.09 343.788C233.887 344.708 234.96 345.168 236.31 345.168ZM309.793 333.484C310.59 333.484 311.203 333.852 311.633 334.588C312.123 335.324 312.369 336.336 312.369 337.624C312.369 340.077 311.786 341.979 310.621 343.328C307.861 346.701 305.07 349.4 302.249 351.424C299.427 353.448 296.085 354.46 292.221 354.46C287.498 354.46 283.695 353.111 280.813 350.412C277.93 347.713 276.489 344.125 276.489 339.648C276.489 337.256 277.715 335.539 280.169 334.496C282.867 333.331 284.799 332.104 285.965 330.816C287.13 329.467 287.713 327.841 287.713 325.94C287.713 324.836 287.467 324.008 286.977 323.456C286.547 322.904 285.995 322.628 285.321 322.628C283.665 322.628 281.825 323.824 279.801 326.216C277.838 328.608 275.998 331.705 274.281 335.508C272.563 339.249 271.214 343.113 270.233 347.1C269.558 349.983 268.761 351.945 267.841 352.988C266.982 353.969 265.602 354.46 263.701 354.46C261.799 354.46 260.389 353.785 259.469 352.436C258.61 351.025 258.027 348.879 257.721 345.996C257.414 343.113 257.261 338.881 257.261 333.3C257.261 323.855 258.211 314.011 260.113 303.768C262.075 293.525 264.927 284.939 268.669 278.008C272.471 271.016 277.01 267.52 282.285 267.52C285.106 267.52 287.375 268.747 289.093 271.2C290.871 273.592 291.761 276.72 291.761 280.584C291.761 286.779 289.951 293.219 286.333 299.904C282.714 306.528 276.826 314.287 268.669 323.18C268.485 326.369 268.393 329.651 268.393 333.024C271.337 325.357 274.71 319.807 278.513 316.372C282.315 312.876 285.873 311.128 289.185 311.128C292.251 311.128 294.705 312.171 296.545 314.256C298.446 316.341 299.397 318.917 299.397 321.984C299.397 325.357 298.538 328.455 296.821 331.276C295.103 334.097 292.159 336.612 287.989 338.82C288.234 340.476 288.97 341.825 290.197 342.868C291.485 343.849 293.018 344.34 294.797 344.34C296.698 344.34 298.538 343.604 300.317 342.132C302.095 340.66 304.426 338.207 307.309 334.772C308.045 333.913 308.873 333.484 309.793 333.484ZM280.353 276.628C279.249 276.628 278.022 278.223 276.673 281.412C275.323 284.54 274.005 288.803 272.717 294.2C271.49 299.536 270.478 305.363 269.681 311.68C273.483 307.203 276.611 302.327 279.065 297.052C281.579 291.777 282.837 286.993 282.837 282.7C282.837 280.737 282.622 279.235 282.193 278.192C281.763 277.149 281.15 276.628 280.353 276.628ZM329.608 336.244C330.406 336.244 331.019 336.612 331.448 337.348C331.939 338.084 332.184 339.096 332.184 340.384C332.184 342.592 331.663 344.493 330.62 346.088C328.903 348.725 326.634 350.78 323.812 352.252C321.052 353.724 317.74 354.46 313.876 354.46C307.988 354.46 303.419 352.712 300.168 349.216C296.918 345.659 295.292 340.875 295.292 334.864C295.292 330.632 296.182 326.707 297.96 323.088C299.739 319.408 302.192 316.495 305.32 314.348C308.51 312.201 312.098 311.128 316.084 311.128C319.642 311.128 322.494 312.201 324.64 314.348C326.787 316.433 327.86 319.285 327.86 322.904C327.86 327.136 326.327 330.785 323.26 333.852C320.255 336.857 315.103 339.249 307.804 341.028C309.276 343.849 311.76 345.26 315.256 345.26C317.771 345.26 319.826 344.677 321.42 343.512C323.076 342.347 324.978 340.384 327.124 337.624C327.86 336.704 328.688 336.244 329.608 336.244ZM314.52 320.144C312.251 320.144 310.319 321.463 308.724 324.1C307.191 326.737 306.424 329.927 306.424 333.668V333.852C310.043 332.993 312.895 331.705 314.98 329.988C317.066 328.271 318.108 326.277 318.108 324.008C318.108 322.843 317.771 321.923 317.096 321.248C316.483 320.512 315.624 320.144 314.52 320.144ZM394.54 333.484C395.338 333.484 395.951 333.852 396.38 334.588C396.871 335.324 397.116 336.336 397.116 337.624C397.116 340.077 396.534 341.979 395.368 343.328C392.854 346.395 390.094 349.032 387.088 351.24C384.083 353.387 381.108 354.46 378.164 354.46C373.503 354.46 369.946 351.731 367.492 346.272C364.916 349.523 362.647 351.7 360.684 352.804C358.783 353.908 356.544 354.46 353.968 354.46C350.227 354.46 347.13 353.08 344.676 350.32C342.284 347.499 341.088 343.849 341.088 339.372C341.088 334.465 342.131 329.927 344.216 325.756C346.302 321.524 349.154 318.089 352.772 315.452C356.452 312.753 360.562 311.159 365.1 310.668C366.266 298.769 368.474 288.619 371.724 280.216C375.036 271.752 379.36 267.52 384.696 267.52C387.334 267.52 389.511 268.716 391.228 271.108C393.007 273.5 393.896 277.119 393.896 281.964C393.896 288.833 392.21 296.868 388.836 306.068C385.463 315.268 380.955 324.713 375.312 334.404C375.558 337.961 376.079 340.507 376.876 342.04C377.735 343.573 378.808 344.34 380.096 344.34C381.752 344.34 383.439 343.604 385.156 342.132C386.874 340.66 389.174 338.207 392.056 334.772C392.792 333.913 393.62 333.484 394.54 333.484ZM383.684 276.536C382.519 276.536 381.354 278.621 380.188 282.792C379.023 286.901 378.011 292.299 377.152 298.984C376.355 305.669 375.772 312.661 375.404 319.96C382.274 304.995 385.708 292.973 385.708 283.896C385.708 281.565 385.494 279.756 385.064 278.468C384.696 277.18 384.236 276.536 383.684 276.536ZM357.188 345.168C358.354 345.168 359.519 344.708 360.684 343.788C361.85 342.807 363.322 341.028 365.1 338.452C364.487 335.14 364.18 331.429 364.18 327.32C364.18 325.848 364.242 323.456 364.364 320.144C360.991 321.187 358.17 323.456 355.9 326.952C353.692 330.387 352.588 334.22 352.588 338.452C352.588 342.929 354.122 345.168 357.188 345.168ZM387.884 354.46C385.553 354.46 383.897 353.233 382.916 350.78C381.996 348.327 381.536 344.401 381.536 339.004C381.536 331.031 382.671 323.456 384.94 316.28C385.492 314.501 386.381 313.213 387.608 312.416C388.896 311.557 390.675 311.128 392.944 311.128C394.171 311.128 395.029 311.281 395.52 311.588C396.011 311.895 396.256 312.477 396.256 313.336C396.256 314.317 395.796 316.525 394.876 319.96C394.263 322.413 393.772 324.56 393.404 326.4C393.036 328.24 392.729 330.509 392.484 333.208C394.508 327.933 396.777 323.64 399.292 320.328C401.807 317.016 404.26 314.655 406.652 313.244C409.105 311.833 411.344 311.128 413.368 311.128C417.355 311.128 419.348 313.121 419.348 317.108C419.348 317.905 419.072 319.837 418.52 322.904C418.029 325.357 417.784 326.891 417.784 327.504C417.784 329.651 418.551 330.724 420.084 330.724C421.801 330.724 424.009 329.375 426.708 326.676C427.505 325.879 428.333 325.48 429.192 325.48C429.989 325.48 430.603 325.848 431.032 326.584C431.523 327.259 431.768 328.179 431.768 329.344C431.768 331.613 431.155 333.392 429.928 334.68C428.211 336.459 426.187 337.992 423.856 339.28C421.587 340.507 419.164 341.12 416.588 341.12C413.337 341.12 410.853 340.292 409.136 338.636C407.48 336.98 406.652 334.741 406.652 331.92C406.652 331 406.744 330.08 406.928 329.16C407.051 327.933 407.112 327.105 407.112 326.676C407.112 325.695 406.775 325.204 406.1 325.204C405.18 325.204 403.953 326.247 402.42 328.332C400.948 330.356 399.476 333.055 398.004 336.428C396.532 339.801 395.336 343.359 394.416 347.1C393.741 349.983 392.944 351.945 392.024 352.988C391.165 353.969 389.785 354.46 387.884 354.46ZM426.255 354.46C422.453 354.46 419.417 353.08 417.147 350.32C414.878 347.56 413.743 343.941 413.743 339.464C413.743 334.557 414.878 329.927 417.147 325.572C419.417 321.156 422.422 317.629 426.163 314.992C429.966 312.293 433.983 310.944 438.215 310.944C439.565 310.944 440.454 311.22 440.883 311.772C441.374 312.263 441.773 313.183 442.079 314.532C443.367 314.287 444.717 314.164 446.127 314.164C449.133 314.164 450.635 315.237 450.635 317.384C450.635 318.672 450.175 321.739 449.255 326.584C447.845 333.637 447.139 338.544 447.139 341.304C447.139 342.224 447.354 342.96 447.783 343.512C448.274 344.064 448.887 344.34 449.623 344.34C450.789 344.34 452.199 343.604 453.855 342.132C455.511 340.599 457.75 338.145 460.571 334.772C461.307 333.913 462.135 333.484 463.055 333.484C463.853 333.484 464.466 333.852 464.895 334.588C465.386 335.324 465.631 336.336 465.631 337.624C465.631 340.077 465.049 341.979 463.883 343.328C461.369 346.456 458.701 349.093 455.879 351.24C453.058 353.387 450.329 354.46 447.691 354.46C445.667 354.46 443.797 353.785 442.079 352.436C440.423 351.025 439.166 349.124 438.307 346.732C435.118 351.884 431.101 354.46 426.255 354.46ZM429.567 345.168C430.917 345.168 432.205 344.371 433.431 342.776C434.658 341.181 435.547 339.065 436.099 336.428L439.503 319.5C436.927 319.561 434.535 320.543 432.327 322.444C430.181 324.284 428.463 326.737 427.175 329.804C425.887 332.871 425.243 336.121 425.243 339.556C425.243 341.457 425.611 342.868 426.347 343.788C427.145 344.708 428.218 345.168 429.567 345.168ZM456.406 354.46C454.075 354.46 452.419 353.233 451.438 350.78C450.518 348.327 450.058 344.401 450.058 339.004C450.058 331.031 451.193 323.456 453.462 316.28C454.014 314.501 454.903 313.213 456.13 312.416C457.418 311.557 459.197 311.128 461.466 311.128C462.693 311.128 463.551 311.281 464.042 311.588C464.533 311.895 464.778 312.477 464.778 313.336C464.778 314.317 464.318 316.525 463.398 319.96C462.785 322.413 462.294 324.56 461.926 326.4C461.558 328.179 461.251 330.417 461.006 333.116C462.662 328.332 464.625 324.284 466.894 320.972C469.225 317.66 471.586 315.207 473.978 313.612C476.431 311.956 478.731 311.128 480.878 311.128C483.025 311.128 484.527 311.619 485.386 312.6C486.306 313.581 486.766 315.084 486.766 317.108C486.766 319.071 486.183 322.628 485.018 327.78C484.527 329.988 484.19 331.644 484.006 332.748C487.073 325.204 490.477 319.715 494.218 316.28C497.959 312.845 501.455 311.128 504.706 311.128C508.693 311.128 510.686 313.121 510.686 317.108C510.686 319.5 510.011 323.824 508.662 330.08C507.497 335.416 506.914 338.943 506.914 340.66C506.914 343.113 507.803 344.34 509.582 344.34C510.809 344.34 512.25 343.604 513.906 342.132C515.623 340.599 517.893 338.145 520.714 334.772C521.45 333.913 522.278 333.484 523.198 333.484C523.995 333.484 524.609 333.852 525.038 334.588C525.529 335.324 525.774 336.336 525.774 337.624C525.774 340.077 525.191 341.979 524.026 343.328C521.389 346.579 518.537 349.247 515.47 351.332C512.465 353.417 509.03 354.46 505.166 354.46C502.038 354.46 499.677 353.571 498.082 351.792C496.487 349.952 495.69 347.315 495.69 343.88C495.69 342.163 496.119 339.096 496.978 334.68C497.775 330.816 498.174 328.148 498.174 326.676C498.174 325.695 497.837 325.204 497.162 325.204C496.365 325.204 495.23 326.247 493.758 328.332C492.286 330.356 490.814 333.055 489.342 336.428C487.87 339.801 486.674 343.359 485.754 347.1C485.079 350.044 484.282 352.007 483.362 352.988C482.503 353.969 481.093 354.46 479.13 354.46C477.106 354.46 475.573 353.509 474.53 351.608C473.549 349.645 473.058 347.284 473.058 344.524C473.058 342.193 473.365 338.82 473.978 334.404C474.469 330.479 474.714 327.903 474.714 326.676C474.714 325.695 474.377 325.204 473.702 325.204C472.782 325.204 471.617 326.308 470.206 328.516C468.795 330.724 467.415 333.545 466.066 336.98C464.778 340.415 463.735 343.788 462.938 347.1C462.263 349.983 461.466 351.945 460.546 352.988C459.687 353.969 458.307 354.46 456.406 354.46ZM520.635 354.46C517.139 354.46 514.287 353.08 512.079 350.32C509.932 347.56 508.859 343.941 508.859 339.464C508.859 334.557 509.994 329.927 512.263 325.572C514.532 321.156 517.538 317.629 521.279 314.992C525.082 312.293 529.099 310.944 533.331 310.944C534.68 310.944 535.57 311.22 535.999 311.772C536.49 312.263 536.888 313.183 537.195 314.532C538.36 314.287 539.648 314.164 541.059 314.164C542.531 314.164 543.666 314.532 544.463 315.268C545.26 316.004 545.659 317.047 545.659 318.396C545.659 319.807 545.352 322.26 544.739 325.756C544.064 329.497 543.543 333.085 543.175 336.52C542.807 339.893 542.623 343.696 542.623 347.928C542.623 350.259 542.132 351.945 541.151 352.988C540.231 353.969 538.698 354.46 536.551 354.46C534.466 354.46 532.902 353.969 531.859 352.988C530.878 351.945 530.387 350.289 530.387 348.02L530.479 346.548C528.578 351.823 525.296 354.46 520.635 354.46ZM524.223 345.168C525.94 345.168 527.504 343.972 528.915 341.58C530.326 339.188 531.583 334.925 532.687 328.792L534.435 319.5C531.92 319.561 529.59 320.543 527.443 322.444C525.296 324.284 523.579 326.737 522.291 329.804C521.003 332.871 520.359 336.121 520.359 339.556C520.359 341.396 520.696 342.807 521.371 343.788C522.107 344.708 523.058 345.168 524.223 345.168Z" fill="black"/>
<path d="M171.401 422V392H187.401V397H177.201V401.8H186.401V406.8H177.201V422H171.401ZM187.197 422V392H196.363C198.541 392 200.397 392.433 201.93 393.3C203.485 394.167 204.674 395.322 205.497 396.767C206.319 398.189 206.73 399.756 206.73 401.467C206.73 403.022 206.385 404.433 205.697 405.7C205.03 406.967 204.074 408.011 202.83 408.833L210.763 422H204.197L197.53 410.6H192.997V422H187.197ZM192.997 405.6H196.23C197.319 405.6 198.208 405.4 198.897 405C199.585 404.578 200.097 404.056 200.43 403.433C200.763 402.789 200.93 402.133 200.93 401.467C200.93 400.289 200.497 399.322 199.63 398.567C198.763 397.789 197.63 397.4 196.23 397.4H192.997V405.6ZM222.931 422.6C220.731 422.6 218.675 422.2 216.764 421.4C214.853 420.578 213.164 419.456 211.697 418.033C210.253 416.611 209.12 414.956 208.297 413.067C207.475 411.178 207.064 409.156 207.064 407C207.064 404.844 207.475 402.822 208.297 400.933C209.12 399.044 210.253 397.389 211.697 395.967C213.164 394.544 214.853 393.433 216.764 392.633C218.675 391.811 220.731 391.4 222.931 391.4C225.131 391.4 227.186 391.811 229.097 392.633C231.009 393.433 232.686 394.544 234.131 395.967C235.597 397.389 236.742 399.044 237.564 400.933C238.386 402.822 238.797 404.844 238.797 407C238.797 409.156 238.386 411.178 237.564 413.067C236.742 414.956 235.597 416.611 234.131 418.033C232.686 419.456 231.009 420.578 229.097 421.4C227.186 422.2 225.131 422.6 222.931 422.6ZM222.931 416.8C224.731 416.8 226.353 416.367 227.797 415.5C229.242 414.611 230.386 413.422 231.231 411.933C232.097 410.444 232.531 408.8 232.531 407C232.531 405.178 232.097 403.533 231.231 402.067C230.386 400.578 229.242 399.4 227.797 398.533C226.353 397.644 224.731 397.2 222.931 397.2C221.131 397.2 219.497 397.644 218.031 398.533C216.586 399.4 215.442 400.578 214.597 402.067C213.753 403.533 213.331 405.178 213.331 407C213.331 408.8 213.753 410.444 214.597 411.933C215.442 413.422 216.586 414.611 218.031 415.5C219.497 416.367 221.131 416.8 222.931 416.8ZM239.488 422V391L253.754 408.733L267.754 391V422H261.954V413.4C261.954 412.422 261.966 411.322 261.988 410.1C262.032 408.878 262.143 407.478 262.321 405.9C261.632 407.056 260.966 408.056 260.321 408.9C259.699 409.744 259.121 410.522 258.588 411.233L253.654 417.833L248.554 411.233C248.043 410.567 247.432 409.767 246.721 408.833C246.032 407.878 245.366 406.867 244.721 405.8C244.899 407.422 244.999 408.844 245.021 410.067C245.066 411.289 245.088 412.4 245.088 413.4V422H239.488ZM289.986 422.6C287.786 422.6 285.731 422.2 283.82 421.4C281.909 420.578 280.22 419.456 278.753 418.033C277.309 416.611 276.175 414.956 275.353 413.067C274.531 411.178 274.12 409.156 274.12 407C274.12 404.844 274.531 402.822 275.353 400.933C276.175 399.044 277.309 397.389 278.753 395.967C280.22 394.544 281.909 393.433 283.82 392.633C285.731 391.811 287.786 391.4 289.986 391.4C292.186 391.4 294.242 391.811 296.153 392.633C298.064 393.433 299.742 394.544 301.186 395.967C302.653 397.389 303.797 399.044 304.62 400.933C305.442 402.822 305.853 404.844 305.853 407C305.853 409.156 305.442 411.178 304.62 413.067C303.797 414.956 302.653 416.611 301.186 418.033C299.742 419.456 298.064 420.578 296.153 421.4C294.242 422.2 292.186 422.6 289.986 422.6ZM289.986 416.8C291.786 416.8 293.409 416.367 294.853 415.5C296.297 414.611 297.442 413.422 298.286 411.933C299.153 410.444 299.586 408.8 299.586 407C299.586 405.178 299.153 403.533 298.286 402.067C297.442 400.578 296.297 399.4 294.853 398.533C293.409 397.644 291.786 397.2 289.986 397.2C288.186 397.2 286.553 397.644 285.086 398.533C283.642 399.4 282.497 400.578 281.653 402.067C280.809 403.533 280.386 405.178 280.386 407C280.386 408.8 280.809 410.444 281.653 411.933C282.497 413.422 283.642 414.611 285.086 415.5C286.553 416.367 288.186 416.8 289.986 416.8ZM316.677 422.7C314.566 422.7 312.688 422.267 311.043 421.4C309.399 420.533 308.099 419.3 307.143 417.7C306.21 416.078 305.743 414.144 305.743 411.9V392H311.943V411.6C311.943 413.222 312.388 414.511 313.277 415.467C314.188 416.422 315.355 416.9 316.777 416.9C318.177 416.9 319.332 416.444 320.243 415.533C321.155 414.6 321.61 413.356 321.61 411.8V392H327.61V411.8C327.61 414.067 327.143 416.022 326.21 417.667C325.277 419.289 323.988 420.533 322.343 421.4C320.721 422.267 318.832 422.7 316.677 422.7ZM328.995 422V392H338.162C340.34 392 342.195 392.433 343.729 393.3C345.284 394.167 346.473 395.322 347.295 396.767C348.118 398.189 348.529 399.756 348.529 401.467C348.529 403.022 348.184 404.433 347.495 405.7C346.829 406.967 345.873 408.011 344.629 408.833L352.562 422H345.995L339.329 410.6H334.795V422H328.995ZM334.795 405.6H338.029C339.118 405.6 340.006 405.4 340.695 405C341.384 404.578 341.895 404.056 342.229 403.433C342.562 402.789 342.729 402.133 342.729 401.467C342.729 400.289 342.295 399.322 341.429 398.567C340.562 397.789 339.429 397.4 338.029 397.4H334.795V405.6ZM371.378 422.6C369.178 422.6 367.123 422.2 365.212 421.4C363.3 420.578 361.612 419.456 360.145 418.033C358.7 416.611 357.567 414.956 356.745 413.067C355.923 411.178 355.512 409.156 355.512 407C355.512 404.844 355.923 402.822 356.745 400.933C357.567 399.044 358.7 397.389 360.145 395.967C361.612 394.544 363.3 393.433 365.212 392.633C367.123 391.811 369.178 391.4 371.378 391.4C373.578 391.4 375.634 391.811 377.545 392.633C379.456 393.433 381.134 394.544 382.578 395.967C384.045 397.389 385.189 399.044 386.012 400.933C386.834 402.822 387.245 404.844 387.245 407C387.245 409.156 386.834 411.178 386.012 413.067C385.189 414.956 384.045 416.611 382.578 418.033C381.134 419.456 379.456 420.578 377.545 421.4C375.634 422.2 373.578 422.6 371.378 422.6ZM371.378 416.8C373.178 416.8 374.8 416.367 376.245 415.5C377.689 414.611 378.834 413.422 379.678 411.933C380.545 410.444 380.978 408.8 380.978 407C380.978 405.178 380.545 403.533 379.678 402.067C378.834 400.578 377.689 399.4 376.245 398.533C374.8 397.644 373.178 397.2 371.378 397.2C369.578 397.2 367.945 397.644 366.478 398.533C365.034 399.4 363.889 400.578 363.045 402.067C362.2 403.533 361.778 405.178 361.778 407C361.778 408.8 362.2 410.444 363.045 411.933C363.889 413.422 365.034 414.611 366.478 415.5C367.945 416.367 369.578 416.8 371.378 416.8ZM396.551 423L383.951 392H390.284L395.184 404.333C395.451 405.022 395.718 405.7 395.984 406.367C396.251 407.011 396.507 407.733 396.751 408.533C396.973 407.756 397.207 407.056 397.451 406.433C397.718 405.789 397.995 405.089 398.284 404.333L403.184 392H409.218L396.618 423H396.551ZM408.318 422V392H424.318V397.2H414.118V401.8H421.985V406.8H414.118V416.6H424.318V422H408.318ZM448.598 423L430.598 405.033V422H424.998V391L442.998 408.933V392H448.598V423ZM447.045 427C448.001 425.622 448.79 424.033 449.412 422.233C450.034 420.433 450.345 418.356 450.345 416H455.945C455.945 418.089 455.69 420.056 455.178 421.9C454.69 423.744 453.923 425.444 452.878 427H447.045ZM188.156 461.4V456H209.023V461.4H201.689V486H195.489V461.4H188.156ZM220.774 486.6C218.574 486.6 216.519 486.2 214.608 485.4C212.697 484.578 211.008 483.456 209.541 482.033C208.097 480.611 206.963 478.956 206.141 477.067C205.319 475.178 204.908 473.156 204.908 471C204.908 468.844 205.319 466.822 206.141 464.933C206.963 463.044 208.097 461.389 209.541 459.967C211.008 458.544 212.697 457.433 214.608 456.633C216.519 455.811 218.574 455.4 220.774 455.4C222.974 455.4 225.03 455.811 226.941 456.633C228.852 457.433 230.53 458.544 231.974 459.967C233.441 461.389 234.586 463.044 235.408 464.933C236.23 466.822 236.641 468.844 236.641 471C236.641 473.156 236.23 475.178 235.408 477.067C234.586 478.956 233.441 480.611 231.974 482.033C230.53 483.456 228.852 484.578 226.941 485.4C225.03 486.2 222.974 486.6 220.774 486.6ZM220.774 480.8C222.574 480.8 224.197 480.367 225.641 479.5C227.086 478.611 228.23 477.422 229.074 475.933C229.941 474.444 230.374 472.8 230.374 471C230.374 469.178 229.941 467.533 229.074 466.067C228.23 464.578 227.086 463.4 225.641 462.533C224.197 461.644 222.574 461.2 220.774 461.2C218.974 461.2 217.341 461.644 215.874 462.533C214.43 463.4 213.286 464.578 212.441 466.067C211.597 467.533 211.174 469.178 211.174 471C211.174 472.8 211.597 474.444 212.441 475.933C213.286 477.422 214.43 478.611 215.874 479.5C217.341 480.367 218.974 480.8 220.774 480.8ZM248.629 486V471.8L239.996 456H246.729L250.263 462.733C250.507 463.222 250.763 463.722 251.029 464.233C251.296 464.722 251.551 465.311 251.796 466C252.063 465.311 252.318 464.722 252.563 464.233C252.829 463.722 253.096 463.222 253.363 462.733L256.929 456H263.263L254.629 471.8V486H248.629ZM274.799 486.6C272.599 486.6 270.543 486.2 268.632 485.4C266.721 484.578 265.032 483.456 263.566 482.033C262.121 480.611 260.988 478.956 260.166 477.067C259.343 475.178 258.932 473.156 258.932 471C258.932 468.844 259.343 466.822 260.166 464.933C260.988 463.044 262.121 461.389 263.566 459.967C265.032 458.544 266.721 457.433 268.632 456.633C270.543 455.811 272.599 455.4 274.799 455.4C276.999 455.4 279.054 455.811 280.966 456.633C282.877 457.433 284.554 458.544 285.999 459.967C287.466 461.389 288.61 463.044 289.432 464.933C290.254 466.822 290.666 468.844 290.666 471C290.666 473.156 290.254 475.178 289.432 477.067C288.61 478.956 287.466 480.611 285.999 482.033C284.554 483.456 282.877 484.578 280.966 485.4C279.054 486.2 276.999 486.6 274.799 486.6ZM274.799 480.8C276.599 480.8 278.221 480.367 279.666 479.5C281.11 478.611 282.254 477.422 283.099 475.933C283.966 474.444 284.399 472.8 284.399 471C284.399 469.178 283.966 467.533 283.099 466.067C282.254 464.578 281.11 463.4 279.666 462.533C278.221 461.644 276.599 461.2 274.799 461.2C272.999 461.2 271.366 461.644 269.899 462.533C268.454 463.4 267.31 464.578 266.466 466.067C265.621 467.533 265.199 469.178 265.199 471C265.199 472.8 265.621 474.444 266.466 475.933C267.31 477.422 268.454 478.611 269.899 479.5C271.366 480.367 272.999 480.8 274.799 480.8ZM301.489 486.7C299.378 486.7 297.5 486.267 295.856 485.4C294.211 484.533 292.911 483.3 291.956 481.7C291.023 480.078 290.556 478.144 290.556 475.9V456H296.756V475.6C296.756 477.222 297.2 478.511 298.089 479.467C299 480.422 300.167 480.9 301.589 480.9C302.989 480.9 304.145 480.444 305.056 479.533C305.967 478.6 306.423 477.356 306.423 475.8V456H312.423V475.8C312.423 478.067 311.956 480.022 311.023 481.667C310.089 483.289 308.8 484.533 307.156 485.4C305.534 486.267 303.645 486.7 301.489 486.7ZM313.808 486V456H322.974C325.152 456 327.008 456.433 328.541 457.3C330.097 458.167 331.286 459.322 332.108 460.767C332.93 462.189 333.341 463.756 333.341 465.467C333.341 467.022 332.997 468.433 332.308 469.7C331.641 470.967 330.686 472.011 329.441 472.833L337.374 486H330.808L324.141 474.6H319.608V486H313.808ZM319.608 469.6H322.841C323.93 469.6 324.819 469.4 325.508 469C326.197 468.578 326.708 468.056 327.041 467.433C327.374 466.789 327.541 466.133 327.541 465.467C327.541 464.289 327.108 463.322 326.241 462.567C325.374 461.789 324.241 461.4 322.841 461.4H319.608V469.6ZM341.724 486V456H347.524V465.6H356.191V456H361.991V486H356.191V471H347.524V486H341.724ZM364.076 486V456H380.076V461.2H369.876V465.8H377.743V470.8H369.876V480.6H380.076V486H364.076ZM377.956 486L391.189 454.933H391.256L404.489 486H398.456L396.223 480.667H386.023L383.789 486H377.956ZM388.023 475.867H394.223L392.923 472.8C392.567 471.978 392.234 471.189 391.923 470.433C391.634 469.656 391.356 468.756 391.089 467.733C390.845 468.733 390.578 469.622 390.289 470.4C390 471.178 389.678 471.978 389.323 472.8L388.023 475.867ZM403.864 486V456H413.031C415.209 456 417.064 456.433 418.597 457.3C420.153 458.167 421.342 459.322 422.164 460.767C422.986 462.189 423.397 463.756 423.397 465.467C423.397 467.022 423.053 468.433 422.364 469.7C421.697 470.967 420.742 472.011 419.497 472.833L427.431 486H420.864L414.197 474.6H409.664V486H403.864ZM409.664 469.6H412.897C413.986 469.6 414.875 469.4 415.564 469C416.253 468.578 416.764 468.056 417.097 467.433C417.431 466.789 417.597 466.133 417.597 465.467C417.597 464.289 417.164 463.322 416.297 462.567C415.431 461.789 414.297 461.4 412.897 461.4H409.664V469.6ZM421.972 461.4V456H442.839V461.4H435.506V486H429.306V461.4H421.972Z" fill="#98457D"/>
</svg>
